<mxfile host="Electron" agent="Mozilla/5.0 (Windows NT 10.0; Win64; x64) AppleWebKit/537.36 (KHTML, like Gecko) draw.io/24.7.8 Chrome/128.0.6613.36 Electron/32.0.1 Safari/537.36" version="24.7.8">
  <diagram name="第 1 页" id="3qxmUk4rVQwAwx5QPrLi">
    <mxGraphModel dx="1100" dy="1871" grid="1" gridSize="10" guides="1" tooltips="1" connect="1" arrows="1" fold="1" page="1" pageScale="1" pageWidth="827" pageHeight="1169" math="0" shadow="0">
      <root>
        <mxCell id="0" />
        <mxCell id="1" parent="0" />
        <mxCell id="7OSwAXzaNFc-ETH6q8dl-1" value="" style="whiteSpace=wrap;html=1;aspect=fixed;" vertex="1" parent="1">
          <mxGeometry y="-50" width="960" height="960" as="geometry" />
        </mxCell>
        <mxCell id="7OSwAXzaNFc-ETH6q8dl-3" value="" style="rounded=0;whiteSpace=wrap;html=1;" vertex="1" parent="1">
          <mxGeometry y="-50" width="960" height="60" as="geometry" />
        </mxCell>
        <mxCell id="7OSwAXzaNFc-ETH6q8dl-8" value="日志" style="rounded=0;whiteSpace=wrap;html=1;" vertex="1" parent="1">
          <mxGeometry x="600" y="10" width="120" height="60" as="geometry" />
        </mxCell>
        <mxCell id="7OSwAXzaNFc-ETH6q8dl-9" value="主页" style="rounded=0;whiteSpace=wrap;html=1;" vertex="1" parent="1">
          <mxGeometry y="10" width="120" height="60" as="geometry" />
        </mxCell>
        <mxCell id="7OSwAXzaNFc-ETH6q8dl-10" value="配置" style="rounded=0;whiteSpace=wrap;html=1;" vertex="1" parent="1">
          <mxGeometry x="120" y="10" width="120" height="60" as="geometry" />
        </mxCell>
        <mxCell id="7OSwAXzaNFc-ETH6q8dl-11" value="PLC配置" style="rounded=0;whiteSpace=wrap;html=1;" vertex="1" parent="1">
          <mxGeometry x="240" y="10" width="120" height="60" as="geometry" />
        </mxCell>
        <mxCell id="7OSwAXzaNFc-ETH6q8dl-12" value="Camera配置" style="rounded=0;whiteSpace=wrap;html=1;" vertex="1" parent="1">
          <mxGeometry x="360" y="10" width="120" height="60" as="geometry" />
        </mxCell>
        <mxCell id="7OSwAXzaNFc-ETH6q8dl-13" value="Light配置" style="rounded=0;whiteSpace=wrap;html=1;" vertex="1" parent="1">
          <mxGeometry x="480" y="10" width="120" height="60" as="geometry" />
        </mxCell>
        <mxCell id="7OSwAXzaNFc-ETH6q8dl-14" value="" style="rounded=0;whiteSpace=wrap;html=1;" vertex="1" parent="1">
          <mxGeometry y="70" width="190" height="60" as="geometry" />
        </mxCell>
        <mxCell id="7OSwAXzaNFc-ETH6q8dl-15" value="" style="rounded=0;whiteSpace=wrap;html=1;" vertex="1" parent="1">
          <mxGeometry y="130" width="190" height="60" as="geometry" />
        </mxCell>
        <mxCell id="7OSwAXzaNFc-ETH6q8dl-16" value="" style="rounded=0;whiteSpace=wrap;html=1;" vertex="1" parent="1">
          <mxGeometry y="190" width="190" height="60" as="geometry" />
        </mxCell>
        <mxCell id="7OSwAXzaNFc-ETH6q8dl-17" value="" style="rounded=0;whiteSpace=wrap;html=1;" vertex="1" parent="1">
          <mxGeometry y="250" width="190" height="60" as="geometry" />
        </mxCell>
        <mxCell id="7OSwAXzaNFc-ETH6q8dl-19" value="" style="line;strokeWidth=2;html=1;" vertex="1" parent="1">
          <mxGeometry x="810" y="-25" width="20" height="10" as="geometry" />
        </mxCell>
      </root>
    </mxGraphModel>
  </diagram>
</mxfile>
